<?xml version="1.0" standalone="no"?>
<!DOCTYPE svg PUBLIC "-//W3C//DTD SVG 20010904//EN"
 "http://www.w3.org/TR/2001/REC-SVG-20010904/DTD/svg10.dtd">
<svg version="1.0" xmlns="http://www.w3.org/2000/svg"
 width="300.000000pt" height="300.000000pt" viewBox="0 0 300.000000 300.000000"
 preserveAspectRatio="xMidYMid meet">
<metadata>
Created by potrace 1.14, written by Peter Selinger 2001-2017
</metadata>
<g transform="translate(0.000000,300.000000) scale(0.100000,-0.100000)"
fill="#000000" stroke="none">
<path d="M1067 2949 c-44 -7 -63 -22 -74 -57 -5 -15 -9 -123 -9 -240 1 -205 0
-212 -19 -213 -11 -1 -42 -2 -70 -3 l-50 -1 0 -132 c0 -129 -1 -134 -25 -157
-74 -70 -185 -256 -206 -344 -4 -15 -11 -33 -17 -39 -5 -7 -7 -13 -4 -13 3 0
1 -15 -4 -32 -17 -60 -21 -92 -23 -204 -3 -153 19 -262 84 -409 23 -51 95
-168 121 -195 8 -8 28 -31 44 -50 l31 -36 -2 -130 -1 -131 61 0 c34 -1 66 -2
71 -2 7 -1 10 -76 9 -214 -1 -220 3 -249 38 -281 20 -19 40 -19 472 -19 331 0
457 3 473 12 45 23 50 52 49 284 l-1 217 30 1 c16 1 48 1 70 1 l41 1 -1 131 0
131 30 35 c16 19 32 37 35 40 72 72 161 253 195 395 19 78 26 252 13 329 -4
28 -10 65 -13 83 -12 80 -98 272 -142 321 -7 7 -13 16 -13 20 0 4 -22 32 -50
62 -27 30 -50 62 -51 70 -1 8 -2 69 -3 135 l-1 120 -55 1 c-30 1 -62 2 -70 3
-13 1 -15 31 -14 214 1 228 -5 265 -48 288 -17 9 -127 13 -444 13 -232 1 -437
-2 -457 -5z"/>
</g>
</svg>
